# xmcd
#
# Track frame offsets:
#	183
#	11288
#	24253
#	36218
#	48710
#	60920
#	72585
#	88390
#	97883
#	110648
#	124658
#	136745
#	148753
#	158463
#	170828
#	182125
#
# Disc length: 2608 seconds
#
# Revision: 0
# Processed by: cddbd v1.5.2PL0 Copyright (c) Steve Scherf et al.
# Submitted via: EZCDAudioConverter 3.1.1.1
#
DISCID=d70a2e10
DTITLE=Timi Yuro - Préférences
DYEAR=1900
DGENRE=
TTITLE0=Hurt
TTITLE1=I Apologize
TTITLE2=Let Me Call You Sweetheart
TTITLE3=I Know (I Love You)
TTITLE4=What's A Matter Baby (Is It Hurting You)
TTITLE5=Make The World Go Away
TTITLE6=Only Love Me
TTITLE7=I Waited Too Long
TTITLE8=Call Me
TTITLE9=Permanently Lonely
TTITLE10=Gotta Travel On
TTITLE11=Leavin' On Your Mind
TTITLE12=I'd Fight The World
TTITLE13=I Walk The Line
TTITLE14=If I Never Get To Love You
TTITLE15=Just Say I Love Him
EXTD=
EXTT0=
EXTT1=
EXTT2=
EXTT3=
EXTT4=
EXTT5=
EXTT6=
EXTT7=
EXTT8=
EXTT9=
EXTT10=
EXTT11=
EXTT12=
EXTT13=
EXTT14=
EXTT15=
PLAYORDER=
